<svg width="42" height="42" viewBox="0 0 42 42" fill="none" xmlns="http://www.w3.org/2000/svg">
<path d="M9 0C4.06641 0 0 4.06641 0 9V12H3V9C3 5.67188 5.67188 3 9 3H12V0H9ZM15 0V3H27V0H15ZM30 0V3H33C36.3281 3 39 5.67188 39 9V12H42V9C42 4.06641 37.9336 0 33 0H30ZM15 12C13.3477 12 12 13.3477 12 15C12 16.6523 13.3477 18 15 18C16.6523 18 18 16.6523 18 15C18 13.3477 16.6523 12 15 12ZM0 15V27H3V15H0ZM39 15V27H42V15H39ZM25.5 21L19.5 27L15 24L9 30V31.5C9 33 10.5 33 10.5 33H31.5C31.5 33 32.918 32.8945 33 31.5V28.5L25.5 21ZM0 30V33C0 37.9336 4.06641 42 9 42H12V39H9C5.67188 39 3 36.3281 3 33V30H0ZM39 30V33C39 36.3281 36.3281 39 33 39H30V42H33C37.9336 42 42 37.9336 42 33V30H39ZM15 39V42H27V39H15Z" fill="#1E1E1E"/>
</svg>
