<svg width="45" height="45" viewBox="0 0 45 45" fill="none" xmlns="http://www.w3.org/2000/svg">
<path fill-rule="evenodd" clip-rule="evenodd" d="M44.6665 1.31372C44.6665 0.58818 44.0783 0 43.3528 0H35.4705C34.7449 0 34.1567 0.58818 34.1567 1.31372C34.1567 2.03926 34.7449 2.62744 35.4705 2.62744H42.0391V9.19605C42.0391 9.9216 42.6272 10.5098 43.3528 10.5098C44.0783 10.5098 44.6665 9.9216 44.6665 9.19605V1.31372Z" fill="#1E1E1E"/>
<path fill-rule="evenodd" clip-rule="evenodd" d="M1.31372 0C0.588283 0 -1.90735e-06 0.58818 -1.90735e-06 1.31372V9.19605C-1.90735e-06 9.9216 0.588283 10.5098 1.31372 10.5098C2.03916 10.5098 2.62744 9.9216 2.62744 9.19605V2.62744H9.19605C9.92149 2.62744 10.5098 2.03926 10.5098 1.31372C10.5098 0.58818 9.92149 0 9.19605 0H1.31372Z" fill="#1E1E1E"/>
<path fill-rule="evenodd" clip-rule="evenodd" d="M43.3528 44.6665C44.0783 44.6665 44.6665 44.0782 44.6665 43.3528V35.4705C44.6665 34.745 44.0783 34.1567 43.3528 34.1567C42.6272 34.1567 42.0391 34.745 42.0391 35.4705V42.0391H35.4705C34.7449 42.0391 34.1567 42.6274 34.1567 43.3528C34.1567 44.0782 34.7449 44.6665 35.4705 44.6665H43.3528Z" fill="#1E1E1E"/>
<path fill-rule="evenodd" clip-rule="evenodd" d="M-1.90735e-06 43.3528C-1.90735e-06 44.0782 0.588283 44.6665 1.31372 44.6665H9.19605C9.92149 44.6665 10.5098 44.0782 10.5098 43.3528C10.5098 42.6274 9.92149 42.0391 9.19605 42.0391H2.62744V35.4705C2.62744 34.745 2.03916 34.1567 1.31372 34.1567C0.588283 34.1567 -1.90735e-06 34.745 -1.90735e-06 35.4705V43.3528Z" fill="#1E1E1E"/>
<path d="M20.1744 35.972L12.7824 36V34.32L16.1984 31.478C17.3044 30.568 17.7664 29.924 17.7664 29.07C17.7664 28.02 17.2484 27.46 16.3244 27.46C15.3584 27.46 14.7984 28.118 14.7984 29.28H12.5444C12.5444 26.956 14.0284 25.444 16.3104 25.444C18.6764 25.444 20.0904 26.718 20.0904 28.93C20.0904 30.344 19.2364 31.492 17.9484 32.57L16.3944 33.872H20.1744V35.972ZM23.0741 36H20.9181V29H22.9341L23.0741 29.728C23.4241 29.238 24.1101 28.776 25.1181 28.776C26.1681 28.776 26.8401 29.266 27.2461 30.008C27.6101 29.266 28.4361 28.776 29.4441 28.776C31.2501 28.776 32.1461 29.826 32.1461 31.422V36H29.9901V32.024C29.9901 31.142 29.5281 30.722 28.8421 30.722C28.2261 30.722 27.6101 31.058 27.6101 32.248V36H25.4541V32.024C25.4541 31.156 25.0061 30.736 24.3201 30.736C23.7041 30.736 23.0741 31.072 23.0741 32.248V36Z" fill="#1E1E1E"/>
<path fill-rule="evenodd" clip-rule="evenodd" d="M22.3334 9C28.5813 9 33.2032 13.1296 34.7697 15.2182C35.0768 15.6276 35.0768 16.1905 34.7697 16.6C33.2032 18.6886 28.5813 22.8181 22.3334 22.8181C16.0855 22.8181 11.4636 18.6886 9.89704 16.6C9.59005 16.1905 9.59005 15.6276 9.89704 15.2182C11.4636 13.1296 16.0855 9 22.3334 9ZM26.6502 19.719C29.221 18.7639 31.2167 17.1377 32.3475 15.9091C31.2167 14.6804 29.221 13.0542 26.6502 12.0992C27.5468 13.1144 28.0909 14.4483 28.0909 15.9091C28.0909 17.3699 27.5468 18.7038 26.6502 19.719ZM18.0166 19.719C15.4457 18.7639 13.4502 17.1377 12.3194 15.9091C13.4502 14.6804 15.4457 13.0542 18.0166 12.0992C17.12 13.1144 16.5758 14.4483 16.5758 15.9091C16.5758 17.3699 17.12 18.7038 18.0166 19.719ZM25.7879 15.9091C25.7879 14.0012 24.2412 12.4545 22.3334 12.4545C20.4256 12.4545 18.8788 14.0012 18.8788 15.9091C18.8788 17.8169 20.4256 19.3636 22.3334 19.3636C24.2412 19.3636 25.7879 17.8169 25.7879 15.9091Z" fill="#1E1E1E"/>
</svg>
