<svg width="43" height="43" viewBox="0 0 43 43" fill="none" xmlns="http://www.w3.org/2000/svg">
<g clip-path="url(#clip0_6_163)">
<path d="M42.259 35.5859H0.74196C0.332538 35.5859 0.000549316 35.2539 0.000549316 34.8445V8.15498C0.000549316 7.74556 0.332538 7.41357 0.74196 7.41357H42.2591C42.6685 7.41357 43.0005 7.74556 43.0005 8.15498V34.8445C43.0004 35.2539 42.6684 35.5859 42.259 35.5859Z" fill="#41479B"/>
<path d="M43.0004 8.15498C43.0004 7.74556 42.6684 7.41357 42.259 7.41357H38.942L25.2073 16.4122V7.41357H17.7935V16.4122L4.05883 7.41357H0.74196C0.332538 7.41357 0.000549316 7.74556 0.000549316 8.15498V10.0724L11.7843 17.7928H0.000549316V25.2066H11.7843L0.000549316 32.9271V34.8445C0.000549316 35.2539 0.332538 35.5859 0.74196 35.5859H4.05891L17.7937 26.5873V35.5859H25.2074V26.5873L38.9422 35.5859H42.2591C42.6686 35.5859 43.0005 35.2539 43.0005 34.8445V32.9271L31.2168 25.2067H43.0004V17.7929H31.2167L43.0004 10.0724V8.15498Z" fill="#F5F5F5"/>
<path d="M43.0004 19.2756H23.7246V7.41357H19.2763V19.2756H0.000549316V23.7239H19.2763V35.5859H23.7246V23.7239H43.0004V19.2756Z" fill="#FF4B55"/>
<path d="M15.0296 25.2065L0.0217896 34.9484C0.0742796 35.3065 0.369484 35.5859 0.742121 35.5859H1.76328L17.753 25.2066H15.0296V25.2065Z" fill="#FF4B55"/>
<path d="M29.0921 25.2065H26.3687L42.3352 35.5705C42.7073 35.5309 43.001 35.227 43.001 34.8444V34.2348L29.0921 25.2065Z" fill="#FF4B55"/>
<path d="M0.0010376 8.97361L13.5879 17.7931H16.3113L0.432968 7.48608C0.179336 7.60391 0.0010376 7.85713 0.0010376 8.15518V8.97361Z" fill="#FF4B55"/>
<path d="M27.9314 17.7931L42.9753 8.02766C42.9128 7.68148 42.6239 7.41382 42.2596 7.41382H41.1975L25.208 17.7931H27.9314Z" fill="#FF4B55"/>
</g>
<defs>
<clipPath id="clip0_6_163">
<rect width="43" height="43" fill="white"/>
</clipPath>
</defs>
</svg>
