<svg width="43" height="43" viewBox="0 0 43 43" fill="none" xmlns="http://www.w3.org/2000/svg">
<g clip-path="url(#clip0_6_156)">
<path d="M0.742878 35.5862H42.2601C42.6695 35.5862 43.0015 35.2543 43.0015 34.8448V8.15523C43.0015 7.74581 42.6695 7.41382 42.2601 7.41382H0.742878C0.333454 7.4139 0.00146484 7.74581 0.00146484 8.15523V34.8448C0.00146484 35.2543 0.333454 35.5862 0.742878 35.5862Z" fill="#C8414B"/>
<path d="M43.0014 13.3452H0.00146484V29.6558H43.0014V13.3452Z" fill="#FFD250"/>
<path d="M18.1651 21.5001L18.7937 18.6714C18.8516 18.4109 18.6533 18.1638 18.3864 18.1638H17.9437C17.6769 18.1638 17.4787 18.4109 17.5364 18.6714L18.1651 21.5001Z" fill="#C8414B"/>
<path d="M18.9066 20.0171H17.4239V26.3184H18.9066V20.0171Z" fill="#F5F5F5"/>
<path d="M19.2767 19.2764H17.0526V20.0178H19.2767V19.2764Z" fill="#FAB446"/>
<path d="M19.2788 21.5H15.5717V22.2414H19.2788V21.5Z" fill="#C8414B"/>
<path d="M19.2786 24.4654L17.0544 23.7241V22.9827L19.2786 23.7241V24.4654Z" fill="#C8414B"/>
<path d="M7.04586 21.5001L7.67448 18.6714C7.73243 18.4109 7.53414 18.1638 7.26724 18.1638H6.82447C6.55766 18.1638 6.35945 18.4109 6.41723 18.6714L7.04586 21.5001Z" fill="#C8414B"/>
<path d="M9.63961 19.2759C9.23018 19.2759 8.89819 19.6079 8.89819 20.0173V24.8362C8.89819 25.737 9.73888 27.4311 12.6051 27.4311C15.4713 27.4311 16.312 25.737 16.312 24.8362V20.0173C16.312 19.6079 15.98 19.2759 15.5706 19.2759H9.63961V19.2759Z" fill="#F5F5F5"/>
<path d="M12.6061 22.9828H8.89923V20.0173C8.89923 19.6079 9.23122 19.2759 9.64064 19.2759H12.6061V22.9828Z" fill="#C8414B"/>
<path d="M12.6062 22.9829H16.3131V24.8364C16.3131 25.86 15.4833 26.6898 14.4596 26.6898C13.436 26.6898 12.6062 25.86 12.6062 24.8364V22.9829V22.9829Z" fill="#C8414B"/>
<path d="M8.89819 22.9829H12.6051V24.8364C12.6051 25.86 11.7753 26.6898 10.7516 26.6898C9.72796 26.6898 8.89819 25.86 8.89819 24.8364V22.9829V22.9829Z" fill="#FAB446"/>
<path d="M11.8621 26.3108V22.9829H11.1207V26.6524C11.3965 26.5965 11.6457 26.4744 11.8621 26.3108Z" fill="#C8414B"/>
<path d="M10.3794 26.6524V22.9829H9.63794V26.3108C9.85445 26.4744 10.1036 26.5965 10.3794 26.6524Z" fill="#C8414B"/>
<path d="M11.8636 21.5002H9.63947V22.2417H11.8636V21.5002Z" fill="#FFB441"/>
<path d="M11.8636 20.0171H9.63947V20.7585H11.8636V20.0171Z" fill="#FAB446"/>
<path d="M11.4921 20.458H10.0093V21.8011H11.4921V20.458Z" fill="#FAB446"/>
<path d="M7.78535 20.0171H6.30261V26.3184H7.78535V20.0171Z" fill="#F5F5F5"/>
<path d="M8.155 25.9487H5.93085V26.6901H8.155V25.9487Z" fill="#FAB446"/>
<path d="M8.155 19.2764H5.93085V20.0178H8.155V19.2764Z" fill="#FAB446"/>
<path d="M8.52756 26.6895H5.56207V27.4309H8.52756V26.6895Z" fill="#5064AA"/>
<path d="M19.648 25.9487H17.4239V26.6901H19.648V25.9487Z" fill="#FAB446"/>
<path d="M19.6476 26.6895H16.6821V27.4309H19.6476V26.6895Z" fill="#5064AA"/>
<path d="M14.8292 18.5347H10.3809V19.2761H14.8292V18.5347Z" fill="#FAB446"/>
<path d="M12.976 16.3108H12.2346V18.5349H12.976V16.3108Z" fill="#FFB441"/>
<path d="M11.8634 17.4226C11.2502 17.4226 10.7514 16.9237 10.7514 16.3105C10.7514 15.6973 11.2503 15.1985 11.8634 15.1985C12.4767 15.1985 12.9755 15.6974 12.9755 16.3105C12.9756 16.9237 12.4767 17.4226 11.8634 17.4226ZM11.8634 15.9398C11.6589 15.9398 11.4927 16.1059 11.4927 16.3105C11.4927 16.515 11.6589 16.6812 11.8634 16.6812C12.068 16.6812 12.2341 16.5151 12.2341 16.3105C12.2341 16.106 12.068 15.9398 11.8634 15.9398Z" fill="#F5F5F5"/>
<path d="M13.3462 17.4226C12.7329 17.4226 12.2341 16.9237 12.2341 16.3105C12.2341 15.6973 12.733 15.1985 13.3462 15.1985C13.9594 15.1985 14.4582 15.6974 14.4582 16.3105C14.4582 16.9237 13.9593 17.4226 13.3462 17.4226ZM13.3462 15.9398C13.1417 15.9398 12.9755 16.1059 12.9755 16.3105C12.9755 16.515 13.1416 16.6812 13.3462 16.6812C13.5507 16.6812 13.7169 16.5151 13.7169 16.3105C13.7168 16.106 13.5507 15.9398 13.3462 15.9398Z" fill="#F5F5F5"/>
<path d="M14.8291 18.164C14.2158 18.164 13.717 17.6651 13.717 17.052C13.717 16.4387 14.2159 15.9399 14.8291 15.9399C15.4423 15.9399 15.9411 16.4388 15.9411 17.052C15.9411 17.6651 15.4422 18.164 14.8291 18.164ZM14.8291 16.6813C14.6246 16.6813 14.4584 16.8474 14.4584 17.052C14.4584 17.2565 14.6245 17.4227 14.8291 17.4227C15.0336 17.4227 15.1998 17.2566 15.1998 17.052C15.1998 16.8474 15.0336 16.6813 14.8291 16.6813Z" fill="#F5F5F5"/>
<path d="M10.3807 18.164C9.7674 18.164 9.26862 17.6651 9.26862 17.052C9.26862 16.4387 9.76748 15.9399 10.3807 15.9399C10.9939 15.9399 11.4927 16.4388 11.4927 17.052C11.4928 17.6651 10.9939 18.164 10.3807 18.164ZM10.3807 16.6813C10.1761 16.6813 10.0099 16.8474 10.0099 17.052C10.0099 17.2565 10.1761 17.4227 10.3807 17.4227C10.5852 17.4227 10.7514 17.2565 10.7514 17.0519C10.7514 16.8474 10.5852 16.6813 10.3807 16.6813Z" fill="#F5F5F5"/>
<path d="M14.8288 24.4657V24.8364C14.8288 25.0408 14.6625 25.2071 14.4581 25.2071C14.2537 25.2071 14.0874 25.0408 14.0874 24.8364V24.4657H14.8288ZM15.5702 23.7244H13.346V24.8364C13.346 25.4497 13.8449 25.9484 14.458 25.9484C15.0713 25.9484 15.5701 25.4496 15.5701 24.8364V23.7244H15.5702Z" fill="#FAB446"/>
<path d="M14.4585 22.2416C14.049 22.2416 13.717 21.9096 13.717 21.5002V20.7587C13.717 20.3493 14.049 20.0173 14.4585 20.0173C14.8679 20.0173 15.1999 20.3493 15.1999 20.7587V21.5002C15.1999 21.9096 14.8679 22.2416 14.4585 22.2416Z" fill="#FFA0D2"/>
<path d="M12.6048 24.0944C13.219 24.0944 13.7169 23.5966 13.7169 22.9824C13.7169 22.3682 13.219 21.8704 12.6048 21.8704C11.9907 21.8704 11.4928 22.3682 11.4928 22.9824C11.4928 23.5966 11.9907 24.0944 12.6048 24.0944Z" fill="#5064AA"/>
<path d="M12.976 14.8276H12.2346V17.0518H12.976V14.8276Z" fill="#FAB446"/>
<path d="M10.3805 18.5347L9.63904 17.7933L10.0733 17.359C10.7446 16.6877 11.6552 16.3105 12.6046 16.3105C13.554 16.3105 14.4645 16.6877 15.1359 17.359L15.5702 17.7933L14.8288 18.5347H10.3805Z" fill="#C8414B"/>
<path d="M12.6039 18.1638C12.8087 18.1638 12.9746 17.9978 12.9746 17.7931C12.9746 17.5883 12.8087 17.4224 12.6039 17.4224C12.3992 17.4224 12.2332 17.5883 12.2332 17.7931C12.2332 17.9978 12.3992 18.1638 12.6039 18.1638Z" fill="#FFD250"/>
<path d="M11.1207 18.1638C11.3254 18.1638 11.4914 17.9978 11.4914 17.7931C11.4914 17.5883 11.3254 17.4224 11.1207 17.4224C10.916 17.4224 10.75 17.5883 10.75 17.7931C10.75 17.9978 10.916 18.1638 11.1207 18.1638Z" fill="#FFD250"/>
<path d="M14.0863 18.1638C14.291 18.1638 14.457 17.9978 14.457 17.7931C14.457 17.5883 14.291 17.4224 14.0863 17.4224C13.8815 17.4224 13.7156 17.5883 13.7156 17.7931C13.7156 17.9978 13.8815 18.1638 14.0863 18.1638Z" fill="#FFD250"/>
<path d="M9.63791 21.5002H5.93085V22.2417H9.63791V21.5002Z" fill="#C8414B"/>
<path d="M5.93085 24.4657L8.15492 23.7243V22.9829L5.93085 23.7243V24.4657Z" fill="#C8414B"/>
</g>
<defs>
<clipPath id="clip0_6_156">
<rect width="43" height="43" fill="white"/>
</clipPath>
</defs>
</svg>
