<svg width="281" height="86" viewBox="0 0 281 86" fill="none" xmlns="http://www.w3.org/2000/svg">
<path d="M9.86007 42.92H6.51069e-05L21.8081 -2.38419e-06H30.6821L38.8601 42.92H29.5801L28.0721 33.756H14.3841L9.86007 42.92ZM22.9101 16.298L18.2121 26.1H26.7381L25.1141 16.298C24.9401 15.254 24.6501 13.224 24.6501 12.238C24.3021 13.224 23.6061 14.906 22.9101 16.298ZM77.3417 42.92H68.2937L75.0797 -2.38419e-06H91.0297C99.5557 -2.38419e-06 104.95 4.814 104.95 12.412C104.95 18.096 101.644 22.91 95.6117 25.81L100.89 42.92H91.5517L86.9697 27.782H79.7197L77.3417 42.92ZM82.8517 8.12L80.9957 19.778H88.0137C92.6537 19.778 95.4957 17.284 95.4957 13.166C95.4957 9.976 93.2917 8.12 89.5797 8.12H82.8517Z" fill="#E57300"/>
<path d="M145.015 21.75L130.921 0.521998H139.737L144.899 8.12C146.639 10.73 148.089 13.166 149.655 16.066L159.515 0.521998H168.157L154.295 21.692L168.215 42.92H159.457L154.701 35.902C152.845 33.06 151.337 30.508 149.655 27.434L139.331 42.92H130.631L145.015 21.75ZM205.606 0.521998V42.92H198.182V0.521998H205.606ZM239.074 27.434V0.521998H246.498V26.97C246.498 33.06 249.804 36.424 255.836 36.424C261.868 36.424 265.232 33.002 265.232 26.97V0.521998H272.656V27.434C272.656 37.352 266.16 43.616 255.836 43.616C245.57 43.616 239.074 37.41 239.074 27.434ZM14.8939 85.4288C5.86335 85.4288 0.012579 79.154 0.012579 69.4451C0.012579 59.821 6.07533 53.4191 15.1483 53.4191C22.4829 53.4191 27.9521 57.7012 29.0121 64.3575H23.2885C22.2285 60.7538 19.1336 58.6339 15.0211 58.6339C9.2975 58.6339 5.69376 62.7888 5.69376 69.4027C5.69376 75.9743 9.33989 80.2139 15.0211 80.2139C19.2184 80.2139 22.4405 78.0093 23.4581 74.5752H29.0968C27.9097 81.1043 22.2285 85.4288 14.8939 85.4288ZM51.8444 84.92H46.2056L57.3984 53.9279H62.9524L74.1452 84.92H68.4216L65.9202 77.7549H54.3458L51.8444 84.92ZM59.4759 63.1704L55.9569 73.1761H64.3515L60.7902 63.1704C60.5358 62.3649 60.239 61.4321 60.1542 60.7962C60.027 61.3897 59.7727 62.3225 59.4759 63.1704ZM99.9931 53.9279V79.9172H112.967V84.92H94.5663V53.9279H99.9931ZM153.162 84.92H133.914V53.9279H153.162V58.9307H139.341V66.9013H151.721V71.6922H139.341V79.9172H153.162V84.92ZM181.008 53.9279V79.9172H193.981V84.92H175.581V53.9279H181.008ZM220.356 53.9279V79.9172H233.329V84.92H214.929V53.9279H220.356ZM257.776 84.92H252.137L263.33 53.9279H268.884L280.076 84.92H274.353L271.851 77.7549H260.277L257.776 84.92ZM265.407 63.1704L261.888 73.1761H270.283L266.721 63.1704C266.467 62.3649 266.17 61.4321 266.086 60.7962C265.958 61.3897 265.704 62.3225 265.407 63.1704Z" fill="#1E1E1E"/>
</svg>
