<svg width="65" height="49" viewBox="0 0 65 49" fill="none" xmlns="http://www.w3.org/2000/svg">
<circle cx="32.4495" cy="22.8198" r="7.053" stroke="#7DB800"/>
<path d="M32.4497 33.894C38.2931 33.8941 43.2293 38.7874 43.9458 46.5464C44.0175 47.3226 43.3764 48.0003 42.5347 48.0005H22.3647C21.5229 48.0005 20.8819 47.3227 20.9536 46.5464C21.6701 38.7873 26.6062 33.894 32.4497 33.894Z" stroke="#7DB800"/>
<path d="M7.08081 31.2952C7.08081 31.2952 17.4294 11.147 18.8481 8.35713C19.5271 7.02209 20.8507 6.33176 21.5467 6.97075C23.6534 8.73124 25.76 10.2331 27.8666 11.4764C27.9587 11.5308 28.0544 11.5796 28.1579 11.6065C28.8614 11.7891 30.0056 11.5764 30.6523 11.147C32.3107 9.89184 33.9671 8.50356 35.6216 6.98216C36.3348 6.25188 37.6413 6.5999 38.3031 7.67249C39.8538 10.1857 47.215 24.8556 48.7095 27.7083M51.8474 12.482C51.8474 15.1464 49.6737 16.3702 46.9979 14.7499C44.3165 13.2779 42.4337 10.3825 42.4337 7.67249C42.4337 4.5346 45.2863 3.66224 47.5685 5.05092C49.8506 6.43961 51.8474 9.60087 51.8474 12.482Z" stroke="#7DB800"/>
<path d="M38.8511 25.6338C46.5519 26.4963 54.0057 29.0143 60.461 33.257C61.8627 34.1782 63.8285 33.2169 63.8285 31.5395C63.8285 25.227 63.8285 18.6937 63.8285 11.9397C63.8285 11.3275 63.5492 10.7462 63.0606 10.3774C45.6179 -2.79252 19.3629 -2.79242 1.29585 10.3774C0.791073 10.7454 0.5 11.3371 0.5 11.9617C0.5 18.7768 0.5 25.3671 0.5 31.7326C0.5 33.3752 2.38782 34.339 3.78086 33.4687C10.4645 29.293 18.0896 26.6867 25.8884 25.7205" stroke="#7DB800"/>
</svg>
