<svg width="54" height="48" viewBox="0 0 54 48" fill="none" xmlns="http://www.w3.org/2000/svg">
<circle cx="5.5" cy="26.5" r="4.5" stroke="#0065A3" stroke-width="2"/>
<circle cx="23.5" cy="5.5" r="4.5" stroke="#0065A3" stroke-width="2"/>
<circle cx="48.5" cy="38.75" r="4.5" stroke="#0065A3" stroke-width="2"/>
<rect x="18" y="31.8601" width="21.9426" height="14.64" rx="1" stroke="#0065A3" stroke-width="2"/>
<path d="M18.6367 42.686L22.9042 37.4707C22.9683 37.3923 23.0236 37.3068 23.0866 37.2276C23.4476 36.7733 24.046 36.8067 24.3718 37.3346L27.6599 42.6632C28.0027 43.2188 28.6517 43.2298 29.0056 42.686L31.5355 38.7988C31.8966 38.2439 32.5619 38.2687 32.8979 38.8494L36.6406 45.5905" stroke="#0065A3" stroke-width="2"/>
<path d="M35.8162 35.0466C36.5278 35.0466 37.0964 35.6199 37.0964 36.3162C37.0962 37.0122 36.5277 37.5847 35.8162 37.5847C35.1046 37.5847 34.5361 37.0122 34.5359 36.3162C34.5359 35.6199 35.1045 35.0466 35.8162 35.0466Z" stroke="#0065A3" stroke-width="2"/>
<line x1="8.24074" y1="22.5992" x2="20.2407" y2="8.59921" stroke="#0065A3" stroke-width="2" stroke-dasharray="2 2"/>
<line x1="46.2074" y1="34.8597" x2="26.2074" y2="8.85971" stroke="#0065A3" stroke-width="2" stroke-dasharray="2 2"/>
</svg>
