<svg width="41" height="41" viewBox="0 0 41 41" fill="none" xmlns="http://www.w3.org/2000/svg">
<g filter="url(#filter0_d_40_135)">
<rect x="4" y="3" width="33" height="33" rx="5" fill="#F3F3F9"/>
</g>
<path fill-rule="evenodd" clip-rule="evenodd" d="M30.9545 13.913C30.9545 14.4173 30.5533 14.8261 30.0584 14.8261H10.9415C10.4466 14.8261 10.0454 14.4173 10.0454 13.913C10.0454 13.4088 10.4466 13 10.9415 13H30.0584C30.5533 13 30.9545 13.4088 30.9545 13.913Z" fill="#1E1E1E"/>
<path fill-rule="evenodd" clip-rule="evenodd" d="M30.9545 20C30.9545 20.5043 30.5533 20.913 30.0584 20.913H10.9415C10.4466 20.913 10.0454 20.5043 10.0454 20C10.0454 19.4957 10.4466 19.087 10.9415 19.087H30.0584C30.5533 19.087 30.9545 19.4957 30.9545 20Z" fill="#1E1E1E"/>
<path fill-rule="evenodd" clip-rule="evenodd" d="M30.9545 26.087C30.9545 26.5912 30.5533 27 30.0584 27H10.9415C10.4466 27 10.0454 26.5912 10.0454 26.087C10.0454 25.5827 10.4466 25.1739 10.9415 25.1739H30.0584C30.5533 25.1739 30.9545 25.5827 30.9545 26.087Z" fill="#1E1E1E"/>
<defs>
<filter id="filter0_d_40_135" x="0" y="0" width="41" height="41" filterUnits="userSpaceOnUse" color-interpolation-filters="sRGB">
<feFlood flood-opacity="0" result="BackgroundImageFix"/>
<feColorMatrix in="SourceAlpha" type="matrix" values="0 0 0 0 0 0 0 0 0 0 0 0 0 0 0 0 0 0 127 0" result="hardAlpha"/>
<feOffset dy="1"/>
<feGaussianBlur stdDeviation="2"/>
<feComposite in2="hardAlpha" operator="out"/>
<feColorMatrix type="matrix" values="0 0 0 0 0 0 0 0 0 0 0 0 0 0 0 0 0 0 0.15 0"/>
<feBlend mode="normal" in2="BackgroundImageFix" result="effect1_dropShadow_40_135"/>
<feBlend mode="normal" in="SourceGraphic" in2="effect1_dropShadow_40_135" result="shape"/>
</filter>
</defs>
</svg>
